<svg width="231" height="393" viewBox="0 0 231 393" fill="none" xmlns="http://www.w3.org/2000/svg">
<rect width="231" height="393" fill="#E5E5E5"/>
<path d="M5.45919 387.716C2.64043 384.302 0.717905 350.897 0.0288982 293.359C-0.150335 93.985 0.54701 295.193 0.941056 93.73C0.941056 26.1254 2.07724 7.28476 6.37001 3.70401C10.2096 0.501277 43.5124 -0.514475 120.124 0.234536L228.449 1.29354L230.427 190.188C231.515 294.079 231.007 382.213 229.298 386.041C226.449 392.423 217.219 393 118.008 393C32.863 393 8.89399 391.875 5.45965 387.716H5.45919ZM76.117 369.14C76.117 366.953 69.9903 365.163 62.5022 365.163C55.0141 365.163 47.787 366.953 46.4421 369.14C44.9652 371.541 50.3577 373.116 60.0568 373.116C68.8899 373.116 76.117 371.327 76.117 369.14ZM131.51 369.14C131.51 366.953 125.383 365.163 117.895 365.163C110.407 365.163 103.18 366.953 101.835 369.14C100.358 371.541 105.751 373.116 115.45 373.116C124.283 373.116 131.51 371.327 131.51 369.14ZM188.882 369.14C187.537 366.953 180.415 365.163 173.055 365.163C165.695 365.163 158.573 366.953 157.228 369.14C155.733 371.572 161.881 373.116 173.055 373.116C184.229 373.116 190.377 371.572 188.882 369.14ZM214.6 194.164V39.0723H117.662H20.7238V194.164V349.256H117.662H214.6V194.164Z" fill="#282728"/>
<rect x="20" y="39" width="195" height="54" fill="#2B68E4"/>
<path d="M69.16 76.8C68.616 77.472 67.952 77.984 67.168 78.336C66.4 78.688 65.552 78.864 64.624 78.864C63.376 78.864 62.248 78.592 61.24 78.048C60.232 77.52 59.08 76.576 57.784 75.216C56.264 75.024 54.904 74.536 53.704 73.752C52.52 72.968 51.592 71.96 50.92 70.728C50.264 69.48 49.936 68.104 49.936 66.6C49.936 64.952 50.328 63.472 51.112 62.16C51.912 60.832 53.008 59.792 54.4 59.04C55.808 58.288 57.384 57.912 59.128 57.912C60.872 57.912 62.44 58.288 63.832 59.04C65.224 59.792 66.32 60.832 67.12 62.16C67.92 63.472 68.32 64.952 68.32 66.6C68.32 68.552 67.768 70.264 66.664 71.736C65.576 73.208 64.128 74.232 62.32 74.808C62.72 75.224 63.104 75.52 63.472 75.696C63.856 75.888 64.264 75.984 64.696 75.984C65.736 75.984 66.648 75.568 67.432 74.736L69.16 76.8ZM53.872 66.6C53.872 67.64 54.096 68.568 54.544 69.384C55.008 70.2 55.64 70.84 56.44 71.304C57.24 71.752 58.136 71.976 59.128 71.976C60.12 71.976 61.016 71.752 61.816 71.304C62.616 70.84 63.24 70.2 63.688 69.384C64.152 68.568 64.384 67.64 64.384 66.6C64.384 65.56 64.152 64.632 63.688 63.816C63.24 63 62.616 62.368 61.816 61.92C61.016 61.456 60.12 61.224 59.128 61.224C58.136 61.224 57.24 61.456 56.44 61.92C55.64 62.368 55.008 63 54.544 63.816C54.096 64.632 53.872 65.56 53.872 66.6ZM83.986 62.088V75H80.434V73.464C79.938 74.024 79.346 74.456 78.658 74.76C77.97 75.048 77.226 75.192 76.426 75.192C74.73 75.192 73.386 74.704 72.394 73.728C71.402 72.752 70.906 71.304 70.906 69.384V62.088H74.65V68.832C74.65 70.912 75.522 71.952 77.266 71.952C78.162 71.952 78.882 71.664 79.426 71.088C79.97 70.496 80.242 69.624 80.242 68.472V62.088H83.986ZM87.4546 62.088H91.1986V75H87.4546V62.088ZM89.3266 60.288C88.6386 60.288 88.0786 60.088 87.6466 59.688C87.2146 59.288 86.9986 58.792 86.9986 58.2C86.9986 57.608 87.2146 57.112 87.6466 56.712C88.0786 56.312 88.6386 56.112 89.3266 56.112C90.0146 56.112 90.5746 56.304 91.0066 56.688C91.4386 57.072 91.6546 57.552 91.6546 58.128C91.6546 58.752 91.4386 59.272 91.0066 59.688C90.5746 60.088 90.0146 60.288 89.3266 60.288ZM105.305 72.12V75H93.7853V72.744L100.361 64.968H93.9533V62.088H105.089V64.344L98.5133 72.12H105.305ZM124.241 61.896C125.857 61.896 127.137 62.376 128.081 63.336C129.041 64.28 129.521 65.704 129.521 67.608V75H125.777V68.184C125.777 67.16 125.561 66.4 125.129 65.904C124.713 65.392 124.113 65.136 123.329 65.136C122.449 65.136 121.753 65.424 121.241 66C120.729 66.56 120.473 67.4 120.473 68.52V75H116.729V68.184C116.729 66.152 115.913 65.136 114.281 65.136C113.417 65.136 112.729 65.424 112.217 66C111.705 66.56 111.449 67.4 111.449 68.52V75H107.705V62.088H111.281V63.576C111.761 63.032 112.345 62.616 113.033 62.328C113.737 62.04 114.505 61.896 115.337 61.896C116.249 61.896 117.073 62.08 117.809 62.448C118.545 62.8 119.137 63.32 119.585 64.008C120.113 63.336 120.777 62.816 121.577 62.448C122.393 62.08 123.281 61.896 124.241 61.896ZM138.084 61.896C140.084 61.896 141.62 62.376 142.692 63.336C143.764 64.28 144.3 65.712 144.3 67.632V75H140.796V73.392C140.092 74.592 138.78 75.192 136.86 75.192C135.868 75.192 135.004 75.024 134.268 74.688C133.548 74.352 132.996 73.888 132.612 73.296C132.228 72.704 132.036 72.032 132.036 71.28C132.036 70.08 132.484 69.136 133.38 68.448C134.292 67.76 135.692 67.416 137.58 67.416H140.556C140.556 66.6 140.308 65.976 139.812 65.544C139.316 65.096 138.572 64.872 137.58 64.872C136.892 64.872 136.212 64.984 135.54 65.208C134.884 65.416 134.324 65.704 133.86 66.072L132.516 63.456C133.22 62.96 134.06 62.576 135.036 62.304C136.028 62.032 137.044 61.896 138.084 61.896ZM137.796 72.672C138.436 72.672 139.004 72.528 139.5 72.24C139.996 71.936 140.348 71.496 140.556 70.92V69.6H137.988C136.452 69.6 135.684 70.104 135.684 71.112C135.684 71.592 135.868 71.976 136.236 72.264C136.62 72.536 137.14 72.672 137.796 72.672ZM155.537 61.896C157.137 61.896 158.425 62.376 159.401 63.336C160.393 64.296 160.889 65.72 160.889 67.608V75H157.145V68.184C157.145 67.16 156.921 66.4 156.473 65.904C156.025 65.392 155.377 65.136 154.529 65.136C153.585 65.136 152.833 65.432 152.273 66.024C151.713 66.6 151.433 67.464 151.433 68.616V75H147.689V62.088H151.265V63.6C151.761 63.056 152.377 62.64 153.113 62.352C153.849 62.048 154.657 61.896 155.537 61.896ZM164.283 62.088H168.027V75H164.283V62.088ZM166.155 60.288C165.467 60.288 164.907 60.088 164.475 59.688C164.043 59.288 163.827 58.792 163.827 58.2C163.827 57.608 164.043 57.112 164.475 56.712C164.907 56.312 165.467 56.112 166.155 56.112C166.843 56.112 167.403 56.304 167.835 56.688C168.267 57.072 168.483 57.552 168.483 58.128C168.483 58.752 168.267 59.272 167.835 59.688C167.403 60.088 166.843 60.288 166.155 60.288ZM176.709 61.896C178.709 61.896 180.245 62.376 181.317 63.336C182.389 64.28 182.925 65.712 182.925 67.632V75H179.421V73.392C178.717 74.592 177.405 75.192 175.485 75.192C174.493 75.192 173.629 75.024 172.893 74.688C172.173 74.352 171.621 73.888 171.237 73.296C170.853 72.704 170.661 72.032 170.661 71.28C170.661 70.08 171.109 69.136 172.005 68.448C172.917 67.76 174.317 67.416 176.205 67.416H179.181C179.181 66.6 178.933 65.976 178.437 65.544C177.941 65.096 177.197 64.872 176.205 64.872C175.517 64.872 174.837 64.984 174.165 65.208C173.509 65.416 172.949 65.704 172.485 66.072L171.141 63.456C171.845 62.96 172.685 62.576 173.661 62.304C174.653 62.032 175.669 61.896 176.709 61.896ZM176.421 72.672C177.061 72.672 177.629 72.528 178.125 72.24C178.621 71.936 178.973 71.496 179.181 70.92V69.6H176.613C175.077 69.6 174.309 70.104 174.309 71.112C174.309 71.592 174.493 71.976 174.861 72.264C175.245 72.536 175.765 72.672 176.421 72.672Z" fill="white"/>
<rect x="20" y="93" width="195" height="258" fill="white"/>
<rect x="49" y="158" width="136" height="38" rx="6" fill="#8AB6D6"/>
<path d="M87.488 182.832V186H74.792V183.48L81.272 177.36C81.96 176.704 82.424 176.144 82.664 175.68C82.904 175.2 83.024 174.728 83.024 174.264C83.024 173.592 82.792 173.08 82.328 172.728C81.88 172.36 81.216 172.176 80.336 172.176C79.6 172.176 78.936 172.32 78.344 172.608C77.752 172.88 77.256 173.296 76.856 173.856L74.024 172.032C74.68 171.056 75.584 170.296 76.736 169.752C77.888 169.192 79.208 168.912 80.696 168.912C81.944 168.912 83.032 169.12 83.96 169.536C84.904 169.936 85.632 170.512 86.144 171.264C86.672 172 86.936 172.872 86.936 173.88C86.936 174.792 86.744 175.648 86.36 176.448C85.976 177.248 85.232 178.16 84.128 179.184L80.264 182.832H87.488ZM96.9403 176.04C98.4123 176.28 99.5403 176.832 100.324 177.696C101.108 178.544 101.5 179.6 101.5 180.864C101.5 181.84 101.244 182.744 100.732 183.576C100.22 184.392 99.4363 185.048 98.3803 185.544C97.3403 186.04 96.0603 186.288 94.5403 186.288C93.3563 186.288 92.1883 186.136 91.0363 185.832C89.9003 185.512 88.9323 185.064 88.1322 184.488L89.6443 181.512C90.2843 181.992 91.0203 182.368 91.8523 182.64C92.7003 182.896 93.5643 183.024 94.4443 183.024C95.4203 183.024 96.1883 182.84 96.7483 182.472C97.3083 182.088 97.5883 181.552 97.5883 180.864C97.5883 179.488 96.5403 178.8 94.4443 178.8H92.6683V176.232L96.1243 172.32H88.9723V169.2H100.732V171.72L96.9403 176.04ZM110.495 186.288C109.103 186.288 107.863 185.944 106.775 185.256C105.687 184.568 104.831 183.576 104.207 182.28C103.599 180.968 103.295 179.408 103.295 177.6C103.295 175.792 103.599 174.24 104.207 172.944C104.831 171.632 105.687 170.632 106.775 169.944C107.863 169.256 109.103 168.912 110.495 168.912C111.887 168.912 113.127 169.256 114.215 169.944C115.303 170.632 116.151 171.632 116.759 172.944C117.383 174.24 117.695 175.792 117.695 177.6C117.695 179.408 117.383 180.968 116.759 182.28C116.151 183.576 115.303 184.568 114.215 185.256C113.127 185.944 111.887 186.288 110.495 186.288ZM110.495 183C111.519 183 112.319 182.56 112.895 181.68C113.487 180.8 113.783 179.44 113.783 177.6C113.783 175.76 113.487 174.4 112.895 173.52C112.319 172.64 111.519 172.2 110.495 172.2C109.487 172.2 108.687 172.64 108.095 173.52C107.519 174.4 107.231 175.76 107.231 177.6C107.231 179.44 107.519 180.8 108.095 181.68C108.687 182.56 109.487 183 110.495 183ZM127.672 175.464C128.744 175.464 129.72 175.68 130.6 176.112C131.48 176.544 132.176 177.16 132.688 177.96C133.2 178.744 133.456 179.656 133.456 180.696C133.456 181.816 133.176 182.8 132.616 183.648C132.056 184.496 131.288 185.152 130.312 185.616C129.352 186.064 128.28 186.288 127.096 186.288C124.744 186.288 122.904 185.568 121.576 184.128C120.248 182.688 119.584 180.632 119.584 177.96C119.584 176.056 119.944 174.424 120.664 173.064C121.384 171.704 122.384 170.672 123.664 169.968C124.96 169.264 126.456 168.912 128.152 168.912C129.048 168.912 129.904 169.016 130.72 169.224C131.552 169.416 132.256 169.696 132.832 170.064L131.392 172.92C130.56 172.36 129.512 172.08 128.248 172.08C126.824 172.08 125.696 172.496 124.864 173.328C124.032 174.16 123.584 175.368 123.52 176.952C124.512 175.96 125.896 175.464 127.672 175.464ZM126.88 183.384C127.712 183.384 128.384 183.16 128.896 182.712C129.424 182.264 129.688 181.656 129.688 180.888C129.688 180.12 129.424 179.512 128.896 179.064C128.384 178.6 127.696 178.368 126.832 178.368C125.984 178.368 125.288 178.608 124.744 179.088C124.2 179.552 123.928 180.152 123.928 180.888C123.928 181.624 124.192 182.224 124.72 182.688C125.248 183.152 125.968 183.384 126.88 183.384ZM141.346 169.2V186H137.458V172.32H134.098V169.2H141.346ZM155.76 177.168C156.592 177.584 157.224 178.128 157.656 178.8C158.104 179.472 158.328 180.248 158.328 181.128C158.328 182.168 158.032 183.08 157.44 183.864C156.848 184.632 156.016 185.232 154.944 185.664C153.872 186.08 152.632 186.288 151.224 186.288C149.816 186.288 148.576 186.08 147.504 185.664C146.448 185.232 145.624 184.632 145.032 183.864C144.456 183.08 144.168 182.168 144.168 181.128C144.168 180.248 144.384 179.472 144.816 178.8C145.264 178.128 145.896 177.584 146.712 177.168C146.088 176.784 145.608 176.304 145.272 175.728C144.936 175.136 144.768 174.464 144.768 173.712C144.768 172.736 145.04 171.888 145.584 171.168C146.128 170.448 146.888 169.896 147.864 169.512C148.84 169.112 149.96 168.912 151.224 168.912C152.504 168.912 153.632 169.112 154.608 169.512C155.6 169.896 156.368 170.448 156.912 171.168C157.456 171.888 157.728 172.736 157.728 173.712C157.728 174.464 157.56 175.136 157.224 175.728C156.888 176.304 156.4 176.784 155.76 177.168ZM151.224 171.768C150.44 171.768 149.808 171.96 149.328 172.344C148.864 172.712 148.632 173.224 148.632 173.88C148.632 174.52 148.864 175.024 149.328 175.392C149.792 175.76 150.424 175.944 151.224 175.944C152.024 175.944 152.664 175.76 153.144 175.392C153.624 175.024 153.864 174.52 153.864 173.88C153.864 173.224 153.624 172.712 153.144 172.344C152.664 171.96 152.024 171.768 151.224 171.768ZM151.224 183.432C152.2 183.432 152.968 183.216 153.528 182.784C154.104 182.336 154.392 181.744 154.392 181.008C154.392 180.272 154.104 179.688 153.528 179.256C152.968 178.824 152.2 178.608 151.224 178.608C150.264 178.608 149.504 178.824 148.944 179.256C148.384 179.688 148.104 180.272 148.104 181.008C148.104 181.76 148.384 182.352 148.944 182.784C149.504 183.216 150.264 183.432 151.224 183.432Z" fill="white"/>
<rect x="49" y="212" width="136" height="38" rx="8" fill="#51BB51"/>
<path d="M89.872 239.24C88.8 239.24 87.808 239.032 86.896 238.616C86 238.184 85.264 237.584 84.688 236.816L86.464 234.68C87.392 235.96 88.504 236.6 89.8 236.6C91.544 236.6 92.416 235.568 92.416 233.504V224.816H86.44V222.2H95.536V233.336C95.536 235.304 95.056 236.784 94.096 237.776C93.136 238.752 91.728 239.24 89.872 239.24ZM107.76 239.24C106.048 239.24 104.504 238.872 103.128 238.136C101.752 237.384 100.672 236.352 99.8883 235.04C99.1043 233.712 98.7123 232.232 98.7123 230.6C98.7123 228.968 99.1043 227.496 99.8883 226.184C100.672 224.856 101.752 223.824 103.128 223.088C104.504 222.336 106.048 221.96 107.76 221.96C109.472 221.96 111.016 222.336 112.392 223.088C113.768 223.824 114.848 224.848 115.632 226.16C116.416 227.472 116.808 228.952 116.808 230.6C116.808 232.248 116.416 233.728 115.632 235.04C114.848 236.352 113.768 237.384 112.392 238.136C111.016 238.872 109.472 239.24 107.76 239.24ZM107.76 236.504C108.88 236.504 109.888 236.256 110.784 235.76C111.68 235.248 112.384 234.544 112.896 233.648C113.408 232.736 113.664 231.72 113.664 230.6C113.664 229.48 113.408 228.472 112.896 227.576C112.384 226.664 111.68 225.96 110.784 225.464C109.888 224.952 108.88 224.696 107.76 224.696C106.64 224.696 105.632 224.952 104.736 225.464C103.84 225.96 103.136 226.664 102.624 227.576C102.112 228.472 101.856 229.48 101.856 230.6C101.856 231.72 102.112 232.736 102.624 233.648C103.136 234.544 103.84 235.248 104.736 235.76C105.632 236.256 106.64 236.504 107.76 236.504ZM120.115 222.2H123.235V239H120.115V222.2ZM142.707 222.2V239H140.139L130.875 227.624V239H127.779V222.2H130.347L139.611 233.576V222.2H142.707Z" fill="white"/>
<path d="M80.808 142.608V144H72.68V132.8H80.584V134.192H74.28V137.632H79.896V138.992H74.28V142.608H80.808ZM87.7028 135.44C88.7801 135.44 89.6334 135.755 90.2628 136.384C90.9028 137.003 91.2228 137.915 91.2228 139.12V144H89.6868V139.296C89.6868 138.475 89.4894 137.856 89.0948 137.44C88.7001 137.024 88.1348 136.816 87.3988 136.816C86.5668 136.816 85.9108 137.061 85.4308 137.552C84.9508 138.032 84.7108 138.725 84.7108 139.632V144H83.1748V135.52H84.6468V136.8C84.9561 136.363 85.3721 136.027 85.8948 135.792C86.4281 135.557 87.0308 135.44 87.7028 135.44ZM98.8334 143.504C98.6094 143.696 98.332 143.845 98.0014 143.952C97.6707 144.048 97.3294 144.096 96.9774 144.096C96.124 144.096 95.4627 143.867 94.9934 143.408C94.524 142.949 94.2894 142.293 94.2894 141.44V136.784H92.8494V135.52H94.2894V133.664H95.8254V135.52H98.2574V136.784H95.8254V141.376C95.8254 141.835 95.9374 142.187 96.1614 142.432C96.396 142.677 96.7267 142.8 97.1534 142.8C97.6227 142.8 98.0227 142.667 98.3534 142.4L98.8334 143.504ZM108.073 139.808C108.073 139.925 108.062 140.08 108.041 140.272H101.161C101.257 141.019 101.582 141.621 102.137 142.08C102.702 142.528 103.401 142.752 104.233 142.752C105.246 142.752 106.062 142.411 106.681 141.728L107.529 142.72C107.145 143.168 106.665 143.509 106.089 143.744C105.524 143.979 104.889 144.096 104.185 144.096C103.289 144.096 102.494 143.915 101.801 143.552C101.108 143.179 100.569 142.661 100.185 142C99.8118 141.339 99.6251 140.592 99.6251 139.76C99.6251 138.939 99.8065 138.197 100.169 137.536C100.542 136.875 101.049 136.363 101.689 136C102.34 135.627 103.07 135.44 103.881 135.44C104.692 135.44 105.412 135.627 106.041 136C106.681 136.363 107.177 136.875 107.529 137.536C107.892 138.197 108.073 138.955 108.073 139.808ZM103.881 136.736C103.145 136.736 102.526 136.96 102.025 137.408C101.534 137.856 101.246 138.443 101.161 139.168H106.601C106.516 138.453 106.222 137.872 105.721 137.424C105.23 136.965 104.617 136.736 103.881 136.736ZM111.678 136.944C111.945 136.453 112.339 136.08 112.862 135.824C113.385 135.568 114.019 135.44 114.766 135.44V136.928C114.681 136.917 114.563 136.912 114.414 136.912C113.582 136.912 112.926 137.163 112.446 137.664C111.977 138.155 111.742 138.859 111.742 139.776V144H110.206V135.52H111.678V136.944ZM124.761 144.096C123.897 144.096 123.124 143.909 122.441 143.536C121.769 143.163 121.241 142.651 120.857 142C120.473 141.339 120.281 140.592 120.281 139.76C120.281 138.928 120.473 138.187 120.857 137.536C121.241 136.875 121.769 136.363 122.441 136C123.124 135.627 123.897 135.44 124.761 135.44C125.529 135.44 126.212 135.595 126.809 135.904C127.417 136.213 127.887 136.661 128.217 137.248L127.049 138C126.783 137.595 126.452 137.291 126.057 137.088C125.663 136.885 125.225 136.784 124.745 136.784C124.191 136.784 123.689 136.907 123.241 137.152C122.804 137.397 122.457 137.749 122.201 138.208C121.956 138.656 121.833 139.173 121.833 139.76C121.833 140.357 121.956 140.885 122.201 141.344C122.457 141.792 122.804 142.139 123.241 142.384C123.689 142.629 124.191 142.752 124.745 142.752C125.225 142.752 125.663 142.651 126.057 142.448C126.452 142.245 126.783 141.941 127.049 141.536L128.217 142.272C127.887 142.859 127.417 143.312 126.809 143.632C126.212 143.941 125.529 144.096 124.761 144.096ZM133.713 144.096C132.87 144.096 132.113 143.909 131.441 143.536C130.769 143.163 130.241 142.651 129.857 142C129.484 141.339 129.297 140.592 129.297 139.76C129.297 138.928 129.484 138.187 129.857 137.536C130.241 136.875 130.769 136.363 131.441 136C132.113 135.627 132.87 135.44 133.713 135.44C134.556 135.44 135.308 135.627 135.969 136C136.641 136.363 137.164 136.875 137.537 137.536C137.921 138.187 138.113 138.928 138.113 139.76C138.113 140.592 137.921 141.339 137.537 142C137.164 142.651 136.641 143.163 135.969 143.536C135.308 143.909 134.556 144.096 133.713 144.096ZM133.713 142.752C134.257 142.752 134.742 142.629 135.169 142.384C135.606 142.128 135.948 141.776 136.193 141.328C136.438 140.869 136.561 140.347 136.561 139.76C136.561 139.173 136.438 138.656 136.193 138.208C135.948 137.749 135.606 137.397 135.169 137.152C134.742 136.907 134.257 136.784 133.713 136.784C133.169 136.784 132.678 136.907 132.241 137.152C131.814 137.397 131.473 137.749 131.217 138.208C130.972 138.656 130.849 139.173 130.849 139.76C130.849 140.347 130.972 140.869 131.217 141.328C131.473 141.776 131.814 142.128 132.241 142.384C132.678 142.629 133.169 142.752 133.713 142.752ZM148.237 132.128V144H146.765V142.656C146.424 143.125 145.992 143.483 145.469 143.728C144.947 143.973 144.371 144.096 143.741 144.096C142.92 144.096 142.184 143.915 141.533 143.552C140.883 143.189 140.371 142.683 139.997 142.032C139.635 141.371 139.453 140.613 139.453 139.76C139.453 138.907 139.635 138.155 139.997 137.504C140.371 136.853 140.883 136.347 141.533 135.984C142.184 135.621 142.92 135.44 143.741 135.44C144.349 135.44 144.909 135.557 145.421 135.792C145.933 136.016 146.36 136.352 146.701 136.8V132.128H148.237ZM143.869 142.752C144.403 142.752 144.888 142.629 145.325 142.384C145.763 142.128 146.104 141.776 146.349 141.328C146.595 140.869 146.717 140.347 146.717 139.76C146.717 139.173 146.595 138.656 146.349 138.208C146.104 137.749 145.763 137.397 145.325 137.152C144.888 136.907 144.403 136.784 143.869 136.784C143.325 136.784 142.835 136.907 142.397 137.152C141.971 137.397 141.629 137.749 141.373 138.208C141.128 138.656 141.005 139.173 141.005 139.76C141.005 140.347 141.128 140.869 141.373 141.328C141.629 141.776 141.971 142.128 142.397 142.384C142.835 142.629 143.325 142.752 143.869 142.752ZM158.808 139.808C158.808 139.925 158.797 140.08 158.776 140.272H151.896C151.992 141.019 152.317 141.621 152.872 142.08C153.437 142.528 154.136 142.752 154.968 142.752C155.981 142.752 156.797 142.411 157.416 141.728L158.264 142.72C157.88 143.168 157.4 143.509 156.824 143.744C156.258 143.979 155.624 144.096 154.92 144.096C154.024 144.096 153.229 143.915 152.536 143.552C151.842 143.179 151.304 142.661 150.92 142C150.546 141.339 150.36 140.592 150.36 139.76C150.36 138.939 150.541 138.197 150.904 137.536C151.277 136.875 151.784 136.363 152.424 136C153.074 135.627 153.805 135.44 154.616 135.44C155.426 135.44 156.146 135.627 156.776 136C157.416 136.363 157.912 136.875 158.264 137.536C158.626 138.197 158.808 138.955 158.808 139.808ZM154.616 136.736C153.88 136.736 153.261 136.96 152.76 137.408C152.269 137.856 151.981 138.443 151.896 139.168H157.336C157.25 138.453 156.957 137.872 156.456 137.424C155.965 136.965 155.352 136.736 154.616 136.736ZM161.308 137.632C161.01 137.632 160.754 137.531 160.54 137.328C160.327 137.115 160.22 136.848 160.22 136.528C160.22 136.219 160.327 135.963 160.54 135.76C160.754 135.547 161.01 135.44 161.308 135.44C161.607 135.44 161.858 135.541 162.06 135.744C162.263 135.947 162.364 136.208 162.364 136.528C162.364 136.848 162.258 137.115 162.044 137.328C161.842 137.531 161.596 137.632 161.308 137.632ZM161.308 144.096C161.01 144.096 160.754 143.995 160.54 143.792C160.327 143.579 160.22 143.312 160.22 142.992C160.22 142.683 160.327 142.427 160.54 142.224C160.754 142.011 161.01 141.904 161.308 141.904C161.607 141.904 161.858 142.005 162.06 142.208C162.263 142.411 162.364 142.672 162.364 142.992C162.364 143.312 162.258 143.579 162.044 143.792C161.842 143.995 161.596 144.096 161.308 144.096Z" fill="#2B68E4"/>
</svg>
