<svg width="228" height="121" viewBox="0 0 228 121" fill="none" xmlns="http://www.w3.org/2000/svg">
<rect width="228" height="121" fill="#E5E5E5"/>
<rect width="228" height="121" fill="white"/>
<rect x="6" y="50" width="214" height="62" rx="6" fill="#51BB51"/>
<path d="M48.944 63.4V69.352L37.088 97H26.72L38.048 70.936H29.216V76.12H21.104V63.4H48.944ZM63.7861 75.64C68.4901 75.64 71.9621 76.6 74.2021 78.52C76.4741 80.44 77.6101 83 77.6101 86.2C77.6101 88.28 77.0661 90.2 75.9781 91.96C74.9221 93.688 73.2901 95.08 71.0821 96.136C68.9061 97.16 66.2021 97.672 62.9701 97.672C60.6021 97.672 58.2501 97.384 55.9141 96.808C53.6101 96.232 51.6261 95.416 49.9621 94.36L53.3701 87.208C54.7141 88.104 56.1861 88.792 57.7861 89.272C59.4181 89.752 61.0501 89.992 62.6821 89.992C64.3141 89.992 65.6101 89.688 66.5701 89.08C67.5621 88.44 68.0581 87.56 68.0581 86.44C68.0581 85.32 67.5781 84.472 66.6181 83.896C65.6581 83.32 63.9621 83.032 61.5301 83.032H52.4101L54.0901 63.4H75.4981V70.744H61.9621L61.5301 75.64H63.7861ZM92.6544 62.728C97.4864 62.728 101.294 64.152 104.078 67C106.862 69.848 108.254 73.944 108.254 79.288C108.254 83.128 107.502 86.44 105.998 89.224C104.526 91.976 102.43 94.072 99.7104 95.512C97.0224 96.952 93.9024 97.672 90.3504 97.672C88.4624 97.672 86.6544 97.448 84.9264 97C83.1984 96.584 81.7264 95.992 80.5104 95.224L83.9664 88.408C85.5984 89.56 87.6624 90.136 90.1584 90.136C92.5584 90.136 94.4944 89.48 95.9664 88.168C97.4704 86.824 98.3504 84.888 98.6064 82.36C96.6864 83.992 94.1744 84.808 91.0704 84.808C88.9584 84.808 87.0224 84.376 85.2624 83.512C83.5024 82.616 82.0944 81.368 81.0384 79.768C80.0144 78.136 79.5024 76.28 79.5024 74.2C79.5024 71.928 80.0784 69.928 81.2304 68.2C82.4144 66.44 83.9984 65.096 85.9824 64.168C87.9984 63.208 90.2224 62.728 92.6544 62.728ZM93.3264 77.992C94.7024 77.992 95.8224 77.608 96.6864 76.84C97.5504 76.04 97.9824 75 97.9824 73.72C97.9824 72.472 97.5504 71.464 96.6864 70.696C95.8544 69.896 94.7184 69.496 93.2784 69.496C91.9344 69.496 90.8304 69.88 89.9664 70.648C89.1344 71.416 88.7184 72.456 88.7184 73.768C88.7184 75.048 89.1344 76.072 89.9664 76.84C90.8304 77.608 91.9504 77.992 93.3264 77.992ZM143.218 90.568H138.226V97H128.962V90.568H111.202V84.376L126.274 63.4H136.114L122.434 83.032H129.25V77.32H138.226V83.032H143.218V90.568ZM176.828 90.568H171.836V97H162.572V90.568H144.812V84.376L159.884 63.4H169.724L156.044 83.032H162.86V77.32H171.836V83.032H176.828V90.568ZM191.286 75.64C195.99 75.64 199.462 76.6 201.702 78.52C203.974 80.44 205.11 83 205.11 86.2C205.11 88.28 204.566 90.2 203.478 91.96C202.422 93.688 200.79 95.08 198.582 96.136C196.406 97.16 193.702 97.672 190.47 97.672C188.102 97.672 185.75 97.384 183.414 96.808C181.11 96.232 179.126 95.416 177.462 94.36L180.87 87.208C182.214 88.104 183.686 88.792 185.286 89.272C186.918 89.752 188.55 89.992 190.182 89.992C191.814 89.992 193.11 89.688 194.07 89.08C195.062 88.44 195.558 87.56 195.558 86.44C195.558 85.32 195.078 84.472 194.118 83.896C193.158 83.32 191.462 83.032 189.03 83.032H179.91L181.59 63.4H202.998V70.744H189.462L189.03 75.64H191.286Z" fill="white"/>
<path d="M36.852 38.168C35.964 39.224 34.896 40.016 33.648 40.544C32.4 41.096 31.02 41.372 29.508 41.372C27.996 41.372 26.64 41.18 25.44 40.796C24.24 40.436 23.04 39.812 21.84 38.924C20.64 38.06 19.272 36.824 17.736 35.216C15.624 34.784 13.764 33.968 12.156 32.768C10.548 31.544 9.288 30.044 8.376 28.268C7.488 26.492 7.044 24.536 7.044 22.4C7.044 19.88 7.656 17.624 8.88 15.632C10.104 13.616 11.796 12.044 13.956 10.916C16.116 9.788 18.552 9.224 21.264 9.224C23.976 9.224 26.412 9.788 28.572 10.916C30.732 12.044 32.424 13.616 33.648 15.632C34.872 17.624 35.484 19.88 35.484 22.4C35.484 25.16 34.752 27.608 33.288 29.744C31.824 31.856 29.844 33.416 27.348 34.424C27.708 34.808 28.068 35.072 28.428 35.216C28.812 35.384 29.232 35.468 29.688 35.468C30.936 35.468 32.1 34.928 33.18 33.848L36.852 38.168ZM21.264 16.1C20.208 16.1 19.248 16.364 18.384 16.892C17.544 17.396 16.872 18.128 16.368 19.088C15.864 20.024 15.612 21.128 15.612 22.4C15.612 23.672 15.864 24.788 16.368 25.748C16.872 26.684 17.544 27.416 18.384 27.944C19.248 28.448 20.208 28.7 21.264 28.7C22.32 28.7 23.268 28.448 24.108 27.944C24.972 27.416 25.656 26.684 26.16 25.748C26.664 24.788 26.916 23.672 26.916 22.4C26.916 21.128 26.664 20.024 26.16 19.088C25.656 18.128 24.972 17.396 24.108 16.892C23.268 16.364 22.32 16.1 21.264 16.1ZM59.8436 15.308V35H52.1036V33.128C51.3836 33.872 50.5436 34.436 49.5836 34.82C48.6236 35.18 47.6036 35.36 46.5236 35.36C44.0276 35.36 42.0236 34.604 40.5116 33.092C38.9996 31.556 38.2436 29.252 38.2436 26.18V15.308H46.3796V24.776C46.3796 26.12 46.5956 27.08 47.0276 27.656C47.4596 28.232 48.0956 28.52 48.9356 28.52C49.7276 28.52 50.3876 28.208 50.9156 27.584C51.4436 26.936 51.7076 25.928 51.7076 24.56V15.308H59.8436ZM63.4523 15.308H71.5883V35H63.4523V15.308ZM67.5203 13.724C66.0563 13.724 64.8683 13.34 63.9563 12.572C63.0683 11.78 62.6243 10.784 62.6243 9.584C62.6243 8.384 63.0683 7.4 63.9563 6.632C64.8683 5.84 66.0563 5.444 67.5203 5.444C69.0083 5.444 70.1963 5.816 71.0843 6.56C71.9723 7.304 72.4163 8.264 72.4163 9.44C72.4163 10.688 71.9723 11.72 71.0843 12.536C70.1963 13.328 69.0083 13.724 67.5203 13.724ZM93.2665 29.06V35H74.4745V30.32L82.6105 21.248H74.7625V15.308H92.8705V19.988L84.7345 29.06H93.2665ZM117.103 35.36C114.871 35.36 112.867 34.928 111.091 34.064C109.339 33.2 107.959 31.988 106.951 30.428C105.967 28.868 105.475 27.104 105.475 25.136C105.475 23.168 105.967 21.416 106.951 19.88C107.959 18.32 109.339 17.108 111.091 16.244C112.867 15.38 114.871 14.948 117.103 14.948C119.503 14.948 121.555 15.464 123.259 16.496C124.963 17.528 126.139 18.956 126.787 20.78L120.487 23.876C119.719 22.148 118.579 21.284 117.067 21.284C116.107 21.284 115.303 21.62 114.655 22.292C114.031 22.964 113.719 23.912 113.719 25.136C113.719 26.384 114.031 27.344 114.655 28.016C115.303 28.688 116.107 29.024 117.067 29.024C118.579 29.024 119.719 28.16 120.487 26.432L126.787 29.528C126.139 31.352 124.963 32.78 123.259 33.812C121.555 34.844 119.503 35.36 117.103 35.36ZM138.895 35.36C136.711 35.36 134.743 34.928 132.991 34.064C131.263 33.176 129.907 31.964 128.923 30.428C127.939 28.868 127.447 27.104 127.447 25.136C127.447 23.168 127.939 21.416 128.923 19.88C129.907 18.32 131.263 17.108 132.991 16.244C134.743 15.38 136.711 14.948 138.895 14.948C141.103 14.948 143.071 15.38 144.799 16.244C146.551 17.108 147.907 18.32 148.867 19.88C149.851 21.416 150.343 23.168 150.343 25.136C150.343 27.104 149.851 28.868 148.867 30.428C147.907 31.964 146.551 33.176 144.799 34.064C143.071 34.928 141.103 35.36 138.895 35.36ZM138.895 29.024C139.831 29.024 140.599 28.688 141.199 28.016C141.799 27.32 142.099 26.36 142.099 25.136C142.099 23.912 141.799 22.964 141.199 22.292C140.599 21.62 139.831 21.284 138.895 21.284C137.959 21.284 137.191 21.62 136.591 22.292C135.991 22.964 135.691 23.912 135.691 25.136C135.691 26.36 135.991 27.32 136.591 28.016C137.191 28.688 137.959 29.024 138.895 29.024ZM174.67 8.288V35H166.93V33.38C165.754 34.7 163.954 35.36 161.53 35.36C159.802 35.36 158.206 34.952 156.742 34.136C155.302 33.296 154.15 32.096 153.286 30.536C152.446 28.976 152.026 27.176 152.026 25.136C152.026 23.096 152.446 21.308 153.286 19.772C154.15 18.212 155.302 17.024 156.742 16.208C158.206 15.368 159.802 14.948 161.53 14.948C163.714 14.948 165.382 15.512 166.534 16.64V8.288H174.67ZM163.474 29.024C164.41 29.024 165.178 28.688 165.778 28.016C166.378 27.32 166.678 26.36 166.678 25.136C166.678 23.912 166.378 22.964 165.778 22.292C165.178 21.62 164.41 21.284 163.474 21.284C162.538 21.284 161.77 21.62 161.17 22.292C160.57 22.964 160.27 23.912 160.27 25.136C160.27 26.36 160.57 27.32 161.17 28.016C161.77 28.688 162.538 29.024 163.474 29.024ZM199.225 25.136C199.225 25.256 199.189 25.892 199.117 27.044H185.437C185.725 27.788 186.205 28.364 186.877 28.772C187.549 29.156 188.389 29.348 189.397 29.348C190.261 29.348 190.981 29.24 191.557 29.024C192.157 28.808 192.805 28.436 193.501 27.908L197.749 32.192C195.829 34.304 192.961 35.36 189.145 35.36C186.769 35.36 184.681 34.928 182.881 34.064C181.081 33.176 179.689 31.952 178.705 30.392C177.721 28.832 177.229 27.08 177.229 25.136C177.229 23.168 177.709 21.416 178.669 19.88C179.653 18.32 180.985 17.108 182.665 16.244C184.369 15.38 186.277 14.948 188.389 14.948C190.381 14.948 192.193 15.344 193.825 16.136C195.481 16.928 196.789 18.092 197.749 19.628C198.733 21.164 199.225 23 199.225 25.136ZM188.461 20.492C187.621 20.492 186.925 20.72 186.373 21.176C185.821 21.632 185.461 22.28 185.293 23.12H191.629C191.461 22.304 191.101 21.668 190.549 21.212C189.997 20.732 189.301 20.492 188.461 20.492ZM205.464 24.236C204.096 24.236 202.956 23.804 202.044 22.94C201.156 22.052 200.712 20.924 200.712 19.556C200.712 18.188 201.156 17.084 202.044 16.244C202.956 15.38 204.096 14.948 205.464 14.948C206.832 14.948 207.96 15.38 208.848 16.244C209.76 17.084 210.216 18.188 210.216 19.556C210.216 20.924 209.76 22.052 208.848 22.94C207.96 23.804 206.832 24.236 205.464 24.236ZM205.464 35.36C204.096 35.36 202.956 34.928 202.044 34.064C201.156 33.176 200.712 32.048 200.712 30.68C200.712 29.312 201.156 28.208 202.044 27.368C202.956 26.504 204.096 26.072 205.464 26.072C206.832 26.072 207.96 26.504 208.848 27.368C209.76 28.208 210.216 29.312 210.216 30.68C210.216 32.048 209.76 33.176 208.848 34.064C207.96 34.928 206.832 35.36 205.464 35.36Z" fill="#2C8AE2"/>
</svg>
