<svg width="280" height="401" viewBox="0 0 280 401" fill="none" xmlns="http://www.w3.org/2000/svg">
<rect width="280" height="401" fill="#E5E5E5"/>
<rect x="0.15" y="1.15" width="279.7" height="399.7" rx="7.85" fill="white" stroke="#6D787B" stroke-width="0.3"/>
<path d="M0 8C0 3.58172 3.58172 0 8 0L272 0C276.418 0 280 3.58172 280 8V92C280 96.4183 276.418 100 272 100H8C3.58172 100 0 96.4183 0 92L0 8Z" fill="#2C8AE2"/>
<rect width="280" height="40" transform="matrix(1 0 0 -1 0 100)" fill="#2C8AE2"/>
<path d="M68.24 82.7C67.424 83.708 66.428 84.476 65.252 85.004C64.1 85.532 62.828 85.796 61.436 85.796C59.564 85.796 57.872 85.388 56.36 84.572C54.848 83.78 53.12 82.364 51.176 80.324C48.896 80.036 46.856 79.304 45.056 78.128C43.28 76.952 41.888 75.44 40.88 73.592C39.896 71.72 39.404 69.656 39.404 67.4C39.404 64.928 39.992 62.708 41.168 60.74C42.368 58.748 44.012 57.188 46.1 56.06C48.212 54.932 50.576 54.368 53.192 54.368C55.808 54.368 58.16 54.932 60.248 56.06C62.336 57.188 63.98 58.748 65.18 60.74C66.38 62.708 66.98 64.928 66.98 67.4C66.98 70.328 66.152 72.896 64.496 75.104C62.864 77.312 60.692 78.848 57.98 79.712C58.58 80.336 59.156 80.78 59.708 81.044C60.284 81.332 60.896 81.476 61.544 81.476C63.104 81.476 64.472 80.852 65.648 79.604L68.24 82.7ZM45.308 67.4C45.308 68.96 45.644 70.352 46.316 71.576C47.012 72.8 47.96 73.76 49.16 74.456C50.36 75.128 51.704 75.464 53.192 75.464C54.68 75.464 56.024 75.128 57.224 74.456C58.424 73.76 59.36 72.8 60.032 71.576C60.728 70.352 61.076 68.96 61.076 67.4C61.076 65.84 60.728 64.448 60.032 63.224C59.36 62 58.424 61.052 57.224 60.38C56.024 59.684 54.68 59.336 53.192 59.336C51.704 59.336 50.36 59.684 49.16 60.38C47.96 61.052 47.012 62 46.316 63.224C45.644 64.448 45.308 65.84 45.308 67.4ZM90.479 60.632V80H85.151V77.696C84.407 78.536 83.519 79.184 82.487 79.64C81.455 80.072 80.339 80.288 79.139 80.288C76.595 80.288 74.579 79.556 73.091 78.092C71.603 76.628 70.859 74.456 70.859 71.576V60.632H76.475V70.748C76.475 73.868 77.783 75.428 80.399 75.428C81.743 75.428 82.823 74.996 83.639 74.132C84.455 73.244 84.863 71.936 84.863 70.208V60.632H90.479ZM95.6818 60.632H101.298V80H95.6818V60.632ZM98.4898 57.932C97.4578 57.932 96.6178 57.632 95.9698 57.032C95.3218 56.432 94.9978 55.688 94.9978 54.8C94.9978 53.912 95.3218 53.168 95.9698 52.568C96.6178 51.968 97.4578 51.668 98.4898 51.668C99.5218 51.668 100.362 51.956 101.01 52.532C101.658 53.108 101.982 53.828 101.982 54.692C101.982 55.628 101.658 56.408 101.01 57.032C100.362 57.632 99.5218 57.932 98.4898 57.932ZM122.458 75.68V80H105.178V76.616L115.042 64.952H105.43V60.632H122.134V64.016L112.27 75.68H122.458ZM150.861 60.344C153.285 60.344 155.205 61.064 156.621 62.504C158.061 63.92 158.781 66.056 158.781 68.912V80H153.165V69.776C153.165 68.24 152.841 67.1 152.193 66.356C151.569 65.588 150.669 65.204 149.493 65.204C148.173 65.204 147.129 65.636 146.361 66.5C145.593 67.34 145.209 68.6 145.209 70.28V80H139.593V69.776C139.593 66.728 138.369 65.204 135.921 65.204C134.625 65.204 133.593 65.636 132.825 66.5C132.057 67.34 131.673 68.6 131.673 70.28V80H126.057V60.632H131.421V62.864C132.141 62.048 133.017 61.424 134.049 60.992C135.105 60.56 136.257 60.344 137.505 60.344C138.873 60.344 140.109 60.62 141.213 61.172C142.317 61.7 143.205 62.48 143.877 63.512C144.669 62.504 145.665 61.724 146.865 61.172C148.089 60.62 149.421 60.344 150.861 60.344ZM171.627 60.344C174.627 60.344 176.931 61.064 178.539 62.504C180.147 63.92 180.951 66.068 180.951 68.948V80H175.695V77.588C174.639 79.388 172.671 80.288 169.791 80.288C168.303 80.288 167.007 80.036 165.903 79.532C164.823 79.028 163.995 78.332 163.419 77.444C162.843 76.556 162.555 75.548 162.555 74.42C162.555 72.62 163.227 71.204 164.571 70.172C165.939 69.14 168.039 68.624 170.871 68.624H175.335C175.335 67.4 174.963 66.464 174.219 65.816C173.475 65.144 172.359 64.808 170.871 64.808C169.839 64.808 168.819 64.976 167.811 65.312C166.827 65.624 165.987 66.056 165.291 66.608L163.275 62.684C164.331 61.94 165.591 61.364 167.055 60.956C168.543 60.548 170.067 60.344 171.627 60.344ZM171.195 76.508C172.155 76.508 173.007 76.292 173.751 75.86C174.495 75.404 175.023 74.744 175.335 73.88V71.9H171.483C169.179 71.9 168.027 72.656 168.027 74.168C168.027 74.888 168.303 75.464 168.855 75.896C169.431 76.304 170.211 76.508 171.195 76.508ZM197.805 60.344C200.205 60.344 202.137 61.064 203.601 62.504C205.089 63.944 205.833 66.08 205.833 68.912V80H200.217V69.776C200.217 68.24 199.881 67.1 199.209 66.356C198.537 65.588 197.565 65.204 196.293 65.204C194.877 65.204 193.749 65.648 192.909 66.536C192.069 67.4 191.649 68.696 191.649 70.424V80H186.033V60.632H191.397V62.9C192.141 62.084 193.065 61.46 194.169 61.028C195.273 60.572 196.485 60.344 197.805 60.344ZM210.924 60.632H216.54V80H210.924V60.632ZM213.732 57.932C212.7 57.932 211.86 57.632 211.212 57.032C210.564 56.432 210.24 55.688 210.24 54.8C210.24 53.912 210.564 53.168 211.212 52.568C211.86 51.968 212.7 51.668 213.732 51.668C214.764 51.668 215.604 51.956 216.252 52.532C216.9 53.108 217.224 53.828 217.224 54.692C217.224 55.628 216.9 56.408 216.252 57.032C215.604 57.632 214.764 57.932 213.732 57.932ZM229.564 60.344C232.564 60.344 234.868 61.064 236.476 62.504C238.084 63.92 238.888 66.068 238.888 68.948V80H233.632V77.588C232.576 79.388 230.608 80.288 227.728 80.288C226.24 80.288 224.944 80.036 223.84 79.532C222.76 79.028 221.932 78.332 221.356 77.444C220.78 76.556 220.492 75.548 220.492 74.42C220.492 72.62 221.164 71.204 222.508 70.172C223.876 69.14 225.976 68.624 228.808 68.624H233.272C233.272 67.4 232.9 66.464 232.156 65.816C231.412 65.144 230.296 64.808 228.808 64.808C227.776 64.808 226.756 64.976 225.748 65.312C224.764 65.624 223.924 66.056 223.228 66.608L221.212 62.684C222.268 61.94 223.528 61.364 224.992 60.956C226.48 60.548 228.004 60.344 229.564 60.344ZM229.132 76.508C230.092 76.508 230.944 76.292 231.688 75.86C232.432 75.404 232.96 74.744 233.272 73.88V71.9H229.42C227.116 71.9 225.964 72.656 225.964 74.168C225.964 74.888 226.24 75.464 226.792 75.896C227.368 76.304 228.148 76.508 229.132 76.508Z" fill="white"/>
<rect y="376" width="280" height="25" rx="8" fill="#2C8AE2"/>
<rect y="376" width="280" height="16" fill="#2C8AE2"/>
<path d="M90.0234 133.293C87.6172 133.293 85.6562 132.512 84.1406 130.949C82.625 129.371 81.8672 127.328 81.8672 124.82C81.8672 122.172 82.6367 120.023 84.1758 118.375C85.707 116.734 87.7461 115.914 90.293 115.914C92.6914 115.914 94.6289 116.699 96.1055 118.27C97.5898 119.832 98.332 121.902 98.332 124.48C98.332 127.113 97.5625 129.242 96.0234 130.867C95.9688 130.922 95.918 130.977 95.8711 131.031C95.8242 131.078 95.7734 131.125 95.7188 131.172L99.9727 135.262H94.6758L92.4492 133C91.7148 133.195 90.9062 133.293 90.0234 133.293ZM90.1875 119.172C88.8672 119.172 87.8125 119.672 87.0234 120.672C86.2422 121.664 85.8516 122.98 85.8516 124.621C85.8516 126.285 86.2422 127.602 87.0234 128.57C87.8047 129.539 88.8281 130.023 90.0938 130.023C91.3984 130.023 92.4336 129.555 93.1992 128.617C93.9648 127.664 94.3477 126.355 94.3477 124.691C94.3477 122.957 93.9766 121.602 93.2344 120.625C92.5 119.656 91.4844 119.172 90.1875 119.172ZM112.172 133H108.48V131.172H108.422C107.508 132.586 106.285 133.293 104.754 133.293C101.973 133.293 100.582 131.609 100.582 128.242V121H104.273V127.914C104.273 129.609 104.945 130.457 106.289 130.457C106.953 130.457 107.484 130.227 107.883 129.766C108.281 129.297 108.48 128.664 108.48 127.867V121H112.172V133ZM117.176 119.102C116.551 119.102 116.039 118.918 115.641 118.551C115.242 118.176 115.043 117.719 115.043 117.18C115.043 116.625 115.242 116.172 115.641 115.82C116.039 115.469 116.551 115.293 117.176 115.293C117.809 115.293 118.32 115.469 118.711 115.82C119.109 116.172 119.309 116.625 119.309 117.18C119.309 117.742 119.109 118.203 118.711 118.562C118.32 118.922 117.809 119.102 117.176 119.102ZM119.004 133H115.301V121H119.004V133ZM131.625 133H120.855V131.465L126.879 123.73H121.453V121H131.578V122.828L125.871 130.27H131.625V133ZM152.426 119.277H147.633V133H143.836V119.277H139.066V116.195H152.426V119.277ZM157.887 133.293C155.887 133.293 154.312 132.734 153.164 131.617C152.023 130.492 151.453 128.969 151.453 127.047C151.453 125.062 152.047 123.512 153.234 122.395C154.422 121.27 156.027 120.707 158.051 120.707C160.043 120.707 161.605 121.27 162.738 122.395C163.871 123.512 164.438 124.992 164.438 126.836C164.438 128.828 163.852 130.402 162.68 131.559C161.516 132.715 159.918 133.293 157.887 133.293ZM157.98 123.543C157.105 123.543 156.426 123.844 155.941 124.445C155.457 125.047 155.215 125.898 155.215 127C155.215 129.305 156.145 130.457 158.004 130.457C159.777 130.457 160.664 129.273 160.664 126.906C160.664 124.664 159.77 123.543 157.98 123.543ZM170.59 131.605H170.543V138.52H166.84V121H170.543V122.805H170.59C171.504 121.406 172.789 120.707 174.445 120.707C176 120.707 177.199 121.242 178.043 122.312C178.895 123.375 179.32 124.824 179.32 126.66C179.32 128.66 178.824 130.266 177.832 131.477C176.848 132.688 175.535 133.293 173.895 133.293C172.449 133.293 171.348 132.73 170.59 131.605ZM170.484 126.684V127.645C170.484 128.473 170.703 129.148 171.141 129.672C171.578 130.195 172.152 130.457 172.863 130.457C173.707 130.457 174.359 130.133 174.82 129.484C175.289 128.828 175.523 127.902 175.523 126.707C175.523 124.598 174.703 123.543 173.062 123.543C172.305 123.543 171.684 123.832 171.199 124.41C170.723 124.98 170.484 125.738 170.484 126.684ZM183.598 119.102C182.973 119.102 182.461 118.918 182.062 118.551C181.664 118.176 181.465 117.719 181.465 117.18C181.465 116.625 181.664 116.172 182.062 115.82C182.461 115.469 182.973 115.293 183.598 115.293C184.23 115.293 184.742 115.469 185.133 115.82C185.531 116.172 185.73 116.625 185.73 117.18C185.73 117.742 185.531 118.203 185.133 118.562C184.742 118.922 184.23 119.102 183.598 119.102ZM185.426 133H181.723V121H185.426V133ZM197.637 132.566C196.801 133.051 195.594 133.293 194.016 133.293C192.172 133.293 190.68 132.734 189.539 131.617C188.398 130.5 187.828 129.059 187.828 127.293C187.828 125.254 188.438 123.648 189.656 122.477C190.883 121.297 192.52 120.707 194.566 120.707C195.98 120.707 197.004 120.895 197.637 121.27V124.41C196.863 123.832 196 123.543 195.047 123.543C193.984 123.543 193.141 123.855 192.516 124.48C191.898 125.098 191.59 125.953 191.59 127.047C191.59 128.109 191.887 128.945 192.48 129.555C193.074 130.156 193.891 130.457 194.93 130.457C195.852 130.457 196.754 130.168 197.637 129.59V132.566Z" fill="#1A55A7"/>
<path d="M45.207 177.82V195H42.4883V181.148C41.9961 181.5 41.4648 181.801 40.8945 182.051C40.332 182.293 39.6875 182.508 38.9609 182.695V180.375C39.4141 180.227 39.8516 180.07 40.2734 179.906C40.6953 179.742 41.1094 179.559 41.5156 179.355C41.9297 179.152 42.3438 178.926 42.7578 178.676C43.1797 178.426 43.6133 178.141 44.0586 177.82H45.207Z" fill="#FFD700"/>
<path d="M49.6953 242H39.1484V240.699C39.1484 240.168 39.2227 239.672 39.3711 239.211C39.5195 238.742 39.7188 238.305 39.9688 237.898C40.2188 237.484 40.5117 237.098 40.8477 236.738C41.1836 236.371 41.543 236.02 41.9258 235.684C42.3086 235.34 42.6992 235.012 43.0977 234.699C43.4961 234.379 43.8867 234.059 44.2695 233.738C44.6289 233.434 44.957 233.137 45.2539 232.848C45.5508 232.551 45.8047 232.246 46.0156 231.934C46.2266 231.621 46.3906 231.293 46.5078 230.949C46.625 230.598 46.6836 230.219 46.6836 229.812C46.6836 229.367 46.6133 228.98 46.4727 228.652C46.3398 228.316 46.1484 228.039 45.8984 227.82C45.6562 227.594 45.3672 227.426 45.0312 227.316C44.6953 227.199 44.3281 227.141 43.9297 227.141C43.2422 227.141 42.543 227.301 41.832 227.621C41.1211 227.941 40.4375 228.422 39.7812 229.062V226.449C40.125 226.191 40.4727 225.969 40.8242 225.781C41.1758 225.586 41.5391 225.426 41.9141 225.301C42.2891 225.168 42.6836 225.07 43.0977 225.008C43.5117 224.945 43.9531 224.914 44.4219 224.914C45.1797 224.914 45.8672 225.016 46.4844 225.219C47.1016 225.414 47.6289 225.707 48.0664 226.098C48.5039 226.48 48.8398 226.961 49.0742 227.539C49.3164 228.117 49.4375 228.781 49.4375 229.531C49.4375 230.211 49.3516 230.824 49.1797 231.371C49.0156 231.91 48.7773 232.414 48.4648 232.883C48.1602 233.352 47.7891 233.797 47.3516 234.219C46.9141 234.641 46.4258 235.074 45.8867 235.52C45.4336 235.887 44.9805 236.246 44.5273 236.598C44.082 236.941 43.6797 237.281 43.3203 237.617C42.9609 237.945 42.668 238.277 42.4414 238.613C42.2227 238.941 42.1133 239.273 42.1133 239.609V239.668H49.6953V242Z" fill="#C0C0C0"/>
<path d="M39.4414 288.379V285.824C40.5352 286.691 41.7695 287.125 43.1445 287.125C44.2617 287.125 45.1523 286.871 45.8164 286.363C46.4883 285.855 46.8242 285.168 46.8242 284.301C46.8242 282.395 45.3672 281.441 42.4531 281.441H41.1523V279.262H42.3945C44.9805 279.262 46.2734 278.363 46.2734 276.566C46.2734 274.91 45.2656 274.082 43.25 274.082C42.125 274.082 41.0664 274.484 40.0742 275.289V272.875C41.2148 272.234 42.5625 271.914 44.1172 271.914C45.6094 271.914 46.8047 272.289 47.7031 273.039C48.6016 273.789 49.0508 274.75 49.0508 275.922C49.0508 278.133 47.9258 279.555 45.6758 280.188V280.234C46.8867 280.352 47.8438 280.777 48.5469 281.512C49.25 282.238 49.6016 283.148 49.6016 284.242C49.6016 285.75 49.0352 286.969 47.9023 287.898C46.7695 288.82 45.2773 289.281 43.4258 289.281C41.7617 289.281 40.4336 288.98 39.4414 288.379Z" fill="#CD7F32"/>
<path d="M48.8516 319.195V330.047H51.3477V332.309H48.8516V336H46.2148V332.309H38.6094V330.023C39.2969 329.25 40 328.414 40.7188 327.516C41.4453 326.609 42.1406 325.688 42.8047 324.75C43.4766 323.805 44.0977 322.859 44.668 321.914C45.2383 320.969 45.7188 320.062 46.1094 319.195H48.8516ZM46.2148 330.047V322.992C45.3633 324.523 44.5195 325.859 43.6836 327C42.8555 328.141 42.0781 329.156 41.3516 330.047H46.2148Z" fill="#1A55A7"/>
<path d="M70.5938 188.977C70.5938 190.969 70.1016 192.52 69.1172 193.629C68.1328 194.73 66.8203 195.281 65.1797 195.281C64.4141 195.281 63.7852 195.191 63.293 195.012V192.387C63.7383 192.691 64.3125 192.844 65.0156 192.844C66.875 192.844 67.8047 191.406 67.8047 188.531V178.195H70.5938V188.977ZM83.2148 195H80.5781V193.125H80.5312C79.7031 194.562 78.4883 195.281 76.8867 195.281C75.707 195.281 74.7812 194.961 74.1094 194.32C73.4453 193.68 73.1133 192.832 73.1133 191.777C73.1133 189.512 74.418 188.191 77.0273 187.816L80.5898 187.312C80.5898 185.602 79.7773 184.746 78.1523 184.746C76.7227 184.746 75.4336 185.238 74.2852 186.223V183.844C75.5508 183.094 77.0117 182.719 78.668 182.719C81.6992 182.719 83.2148 184.211 83.2148 187.195V195ZM80.5898 189.105L78.0703 189.457C77.2891 189.559 76.6992 189.75 76.3008 190.031C75.9102 190.305 75.7148 190.789 75.7148 191.484C75.7148 191.992 75.8945 192.41 76.2539 192.738C76.6211 193.059 77.1094 193.219 77.7188 193.219C78.5469 193.219 79.2305 192.93 79.7695 192.352C80.3164 191.766 80.5898 191.031 80.5898 190.148V189.105ZM95.1328 194.449C94.1719 195.004 93.0352 195.281 91.7227 195.281C89.9414 195.281 88.5039 194.727 87.4102 193.617C86.3164 192.5 85.7695 191.055 85.7695 189.281C85.7695 187.305 86.3555 185.719 87.5273 184.523C88.707 183.32 90.2812 182.719 92.25 182.719C93.3438 182.719 94.3086 182.91 95.1445 183.293V185.824C94.3086 185.199 93.418 184.887 92.4727 184.887C91.3242 184.887 90.3828 185.277 89.6484 186.059C88.9141 186.832 88.5469 187.848 88.5469 189.105C88.5469 190.348 88.8906 191.328 89.5781 192.047C90.2734 192.766 91.2031 193.125 92.3672 193.125C93.3438 193.125 94.2656 192.777 95.1328 192.082V194.449ZM108.727 195H105.281L100.617 189.234H100.57V195H97.8398V177.234H100.57V188.496H100.617L105.023 183H108.293L103.336 188.789L108.727 195Z" fill="#1A55A7"/>
<path d="M216.816 194.613V192C217.918 192.742 219.035 193.113 220.168 193.113C221.309 193.113 222.227 192.824 222.922 192.246C223.617 191.66 223.965 190.883 223.965 189.914C223.965 188.961 223.609 188.219 222.898 187.688C222.195 187.156 221.184 186.891 219.863 186.891C219.41 186.891 218.492 186.938 217.109 187.031L217.707 178.195H225.98V180.516H219.969L219.688 184.723C220.227 184.691 220.715 184.676 221.152 184.676C222.934 184.676 224.309 185.133 225.277 186.047C226.254 186.961 226.742 188.211 226.742 189.797C226.742 191.461 226.184 192.797 225.066 193.805C223.957 194.805 222.43 195.305 220.484 195.305C218.844 195.305 217.621 195.074 216.816 194.613ZM234.816 195.281C233.066 195.281 231.699 194.566 230.715 193.137C229.738 191.707 229.25 189.641 229.25 186.938C229.25 183.969 229.762 181.723 230.785 180.199C231.809 178.676 233.285 177.914 235.215 177.914C238.91 177.914 240.758 180.785 240.758 186.527C240.758 189.371 240.234 191.543 239.188 193.043C238.148 194.535 236.691 195.281 234.816 195.281ZM235.086 180.082C233.047 180.082 232.027 182.328 232.027 186.82C232.027 191.023 233.027 193.125 235.027 193.125C236.996 193.125 237.98 190.988 237.98 186.715C237.98 182.293 237.016 180.082 235.086 180.082Z" fill="#1A55A7"/>
<path d="M225.852 225.195V236.047H228.348V238.309H225.852V242H223.215V238.309H215.609V236.023C216.297 235.25 217 234.414 217.719 233.516C218.445 232.609 219.141 231.688 219.805 230.75C220.477 229.805 221.098 228.859 221.668 227.914C222.238 226.969 222.719 226.062 223.109 225.195H225.852ZM223.215 236.047V228.992C222.363 230.523 221.52 231.859 220.684 233C219.855 234.141 219.078 235.156 218.352 236.047H223.215ZM235.309 242.281C233.559 242.281 232.191 241.566 231.207 240.137C230.23 238.707 229.742 236.641 229.742 233.938C229.742 230.969 230.254 228.723 231.277 227.199C232.301 225.676 233.777 224.914 235.707 224.914C239.402 224.914 241.25 227.785 241.25 233.527C241.25 236.371 240.727 238.543 239.68 240.043C238.641 241.535 237.184 242.281 235.309 242.281ZM235.578 227.082C233.539 227.082 232.52 229.328 232.52 233.82C232.52 238.023 233.52 240.125 235.52 240.125C237.488 240.125 238.473 237.988 238.473 233.715C238.473 229.293 237.508 227.082 235.578 227.082Z" fill="#1A55A7"/>
<path d="M216.441 288.379V285.824C217.535 286.691 218.77 287.125 220.145 287.125C221.262 287.125 222.152 286.871 222.816 286.363C223.488 285.855 223.824 285.168 223.824 284.301C223.824 282.395 222.367 281.441 219.453 281.441H218.152V279.262H219.395C221.98 279.262 223.273 278.363 223.273 276.566C223.273 274.91 222.266 274.082 220.25 274.082C219.125 274.082 218.066 274.484 217.074 275.289V272.875C218.215 272.234 219.562 271.914 221.117 271.914C222.609 271.914 223.805 272.289 224.703 273.039C225.602 273.789 226.051 274.75 226.051 275.922C226.051 278.133 224.926 279.555 222.676 280.188V280.234C223.887 280.352 224.844 280.777 225.547 281.512C226.25 282.238 226.602 283.148 226.602 284.242C226.602 285.75 226.035 286.969 224.902 287.898C223.77 288.82 222.277 289.281 220.426 289.281C218.762 289.281 217.434 288.98 216.441 288.379ZM230.152 288.613V286C231.254 286.742 232.371 287.113 233.504 287.113C234.645 287.113 235.562 286.824 236.258 286.246C236.953 285.66 237.301 284.883 237.301 283.914C237.301 282.961 236.945 282.219 236.234 281.688C235.531 281.156 234.52 280.891 233.199 280.891C232.746 280.891 231.828 280.938 230.445 281.031L231.043 272.195H239.316V274.516H233.305L233.023 278.723C233.562 278.691 234.051 278.676 234.488 278.676C236.27 278.676 237.645 279.133 238.613 280.047C239.59 280.961 240.078 282.211 240.078 283.797C240.078 285.461 239.52 286.797 238.402 287.805C237.293 288.805 235.766 289.305 233.82 289.305C232.18 289.305 230.957 289.074 230.152 288.613Z" fill="#1A55A7"/>
<path d="M216.441 329.379V326.824C217.535 327.691 218.77 328.125 220.145 328.125C221.262 328.125 222.152 327.871 222.816 327.363C223.488 326.855 223.824 326.168 223.824 325.301C223.824 323.395 222.367 322.441 219.453 322.441H218.152V320.262H219.395C221.98 320.262 223.273 319.363 223.273 317.566C223.273 315.91 222.266 315.082 220.25 315.082C219.125 315.082 218.066 315.484 217.074 316.289V313.875C218.215 313.234 219.562 312.914 221.117 312.914C222.609 312.914 223.805 313.289 224.703 314.039C225.602 314.789 226.051 315.75 226.051 316.922C226.051 319.133 224.926 320.555 222.676 321.188V321.234C223.887 321.352 224.844 321.777 225.547 322.512C226.25 323.238 226.602 324.148 226.602 325.242C226.602 326.75 226.035 327.969 224.902 328.898C223.77 329.82 222.277 330.281 220.426 330.281C218.762 330.281 217.434 329.98 216.441 329.379ZM234.816 330.281C233.066 330.281 231.699 329.566 230.715 328.137C229.738 326.707 229.25 324.641 229.25 321.938C229.25 318.969 229.762 316.723 230.785 315.199C231.809 313.676 233.285 312.914 235.215 312.914C238.91 312.914 240.758 315.785 240.758 321.527C240.758 324.371 240.234 326.543 239.188 328.043C238.148 329.535 236.691 330.281 234.816 330.281ZM235.086 315.082C233.047 315.082 232.027 317.328 232.027 321.82C232.027 326.023 233.027 328.125 235.027 328.125C236.996 328.125 237.98 325.988 237.98 321.715C237.98 317.293 237.016 315.082 235.086 315.082Z" fill="#1A55A7"/>
<path d="M67.8516 235.906V242H65.0742V225.195H70.1719C72.1016 225.195 73.5977 225.645 74.6602 226.543C75.7227 227.441 76.2539 228.707 76.2539 230.34C76.2539 231.973 75.6992 233.309 74.5898 234.348C73.4805 235.387 71.9805 235.906 70.0898 235.906H67.8516ZM67.8516 227.492V233.633H69.6562C70.8516 233.633 71.7617 233.355 72.3867 232.801C73.0117 232.246 73.3242 231.465 73.3242 230.457C73.3242 228.48 72.1758 227.492 69.8789 227.492H67.8516ZM83.3086 242.281C81.457 242.281 79.9766 241.723 78.8672 240.605C77.7656 239.48 77.2148 237.992 77.2148 236.141C77.2148 234.125 77.7891 232.551 78.9375 231.418C80.0938 230.285 81.6484 229.719 83.6016 229.719C85.4766 229.719 86.9375 230.27 87.9844 231.371C89.0312 232.473 89.5547 234 89.5547 235.953C89.5547 237.867 88.9883 239.402 87.8555 240.559C86.7305 241.707 85.2148 242.281 83.3086 242.281ZM83.4375 231.887C82.375 231.887 81.5352 232.258 80.918 233C80.3008 233.742 79.9922 234.766 79.9922 236.07C79.9922 237.328 80.3047 238.32 80.9297 239.047C81.5547 239.766 82.3906 240.125 83.4375 240.125C84.5078 240.125 85.3281 239.77 85.8984 239.059C86.4766 238.348 86.7656 237.336 86.7656 236.023C86.7656 234.703 86.4766 233.684 85.8984 232.965C85.3281 232.246 84.5078 231.887 83.4375 231.887ZM95.0977 240.23H95.0508V247.52H92.332V230H95.0508V232.109H95.0977C96.0273 230.516 97.3867 229.719 99.1758 229.719C100.699 229.719 101.887 230.254 102.738 231.324C103.59 232.395 104.016 233.832 104.016 235.637C104.016 237.637 103.535 239.238 102.574 240.441C101.613 241.645 100.301 242.246 98.6367 242.246C97.1055 242.246 95.9258 241.574 95.0977 240.23ZM95.0273 235.496V236.984C95.0273 237.859 95.3047 238.602 95.8594 239.211C96.4219 239.82 97.1328 240.125 97.9922 240.125C99 240.125 99.7891 239.734 100.359 238.953C100.938 238.164 101.227 237.066 101.227 235.66C101.227 234.48 100.957 233.559 100.418 232.895C99.8867 232.223 99.1641 231.887 98.25 231.887C97.2812 231.887 96.5 232.23 95.9062 232.918C95.3203 233.605 95.0273 234.465 95.0273 235.496ZM116.953 236.738H108.773C108.805 237.848 109.145 238.703 109.793 239.305C110.449 239.906 111.348 240.207 112.488 240.207C113.77 240.207 114.945 239.824 116.016 239.059V241.25C114.922 241.938 113.477 242.281 111.68 242.281C109.914 242.281 108.527 241.738 107.52 240.652C106.52 239.559 106.02 238.023 106.02 236.047C106.02 234.18 106.57 232.66 107.672 231.488C108.781 230.309 110.156 229.719 111.797 229.719C113.438 229.719 114.707 230.246 115.605 231.301C116.504 232.355 116.953 233.82 116.953 235.695V236.738ZM114.328 234.816C114.32 233.84 114.09 233.082 113.637 232.543C113.184 231.996 112.559 231.723 111.762 231.723C110.98 231.723 110.316 232.008 109.77 232.578C109.23 233.148 108.898 233.895 108.773 234.816H114.328ZM129.938 230L124.523 243.922C123.398 246.406 121.82 247.648 119.789 247.648C119.219 247.648 118.742 247.598 118.359 247.496V245.234C118.789 245.375 119.18 245.445 119.531 245.445C120.547 245.445 121.305 244.945 121.805 243.945L122.613 241.977L117.844 230H120.855L123.715 238.719C123.746 238.828 123.816 239.117 123.926 239.586H123.984C124.023 239.406 124.094 239.125 124.195 238.742L127.195 230H129.938ZM141.727 236.738H133.547C133.578 237.848 133.918 238.703 134.566 239.305C135.223 239.906 136.121 240.207 137.262 240.207C138.543 240.207 139.719 239.824 140.789 239.059V241.25C139.695 241.938 138.25 242.281 136.453 242.281C134.688 242.281 133.301 241.738 132.293 240.652C131.293 239.559 130.793 238.023 130.793 236.047C130.793 234.18 131.344 232.66 132.445 231.488C133.555 230.309 134.93 229.719 136.57 229.719C138.211 229.719 139.48 230.246 140.379 231.301C141.277 232.355 141.727 233.82 141.727 235.695V236.738ZM139.102 234.816C139.094 233.84 138.863 233.082 138.41 232.543C137.957 231.996 137.332 231.723 136.535 231.723C135.754 231.723 135.09 232.008 134.543 232.578C134.004 233.148 133.672 233.895 133.547 234.816H139.102Z" fill="#1A55A7"/>
<path d="M70.5938 282.977C70.5938 284.969 70.1016 286.52 69.1172 287.629C68.1328 288.73 66.8203 289.281 65.1797 289.281C64.4141 289.281 63.7852 289.191 63.293 289.012V286.387C63.7383 286.691 64.3125 286.844 65.0156 286.844C66.875 286.844 67.8047 285.406 67.8047 282.531V272.195H70.5938V282.977ZM79.6055 289.281C77.7539 289.281 76.2734 288.723 75.1641 287.605C74.0625 286.48 73.5117 284.992 73.5117 283.141C73.5117 281.125 74.0859 279.551 75.2344 278.418C76.3906 277.285 77.9453 276.719 79.8984 276.719C81.7734 276.719 83.2344 277.27 84.2812 278.371C85.3281 279.473 85.8516 281 85.8516 282.953C85.8516 284.867 85.2852 286.402 84.1523 287.559C83.0273 288.707 81.5117 289.281 79.6055 289.281ZM79.7344 278.887C78.6719 278.887 77.832 279.258 77.2148 280C76.5977 280.742 76.2891 281.766 76.2891 283.07C76.2891 284.328 76.6016 285.32 77.2266 286.047C77.8516 286.766 78.6875 287.125 79.7344 287.125C80.8047 287.125 81.625 286.77 82.1953 286.059C82.7734 285.348 83.0625 284.336 83.0625 283.023C83.0625 281.703 82.7734 280.684 82.1953 279.965C81.625 279.246 80.8047 278.887 79.7344 278.887ZM99.293 289H96.5742V282.438C96.5742 280.062 95.7812 278.875 94.1953 278.875C93.3984 278.875 92.7266 279.219 92.1797 279.906C91.6328 280.594 91.3594 281.473 91.3594 282.543V289H88.6289V271.234H91.3594V278.992H91.4062C92.3125 277.477 93.6094 276.719 95.2969 276.719C97.9609 276.719 99.293 278.348 99.293 281.605V289ZM113.285 289H110.566V282.238C110.566 279.996 109.773 278.875 108.188 278.875C107.359 278.875 106.676 279.188 106.137 279.812C105.598 280.43 105.328 281.211 105.328 282.156V289H102.598V277H105.328V278.992H105.375C106.273 277.477 107.57 276.719 109.266 276.719C110.57 276.719 111.566 277.145 112.254 277.996C112.941 278.84 113.285 280.062 113.285 281.664V289ZM123.527 289V272.195H128.379C134.574 272.195 137.672 274.926 137.672 280.387C137.672 282.98 136.812 285.066 135.094 286.645C133.375 288.215 131.07 289 128.18 289H123.527ZM126.305 274.562V286.645H128.531C130.492 286.645 132.016 286.105 133.102 285.027C134.195 283.949 134.742 282.426 134.742 280.457C134.742 276.527 132.707 274.562 128.637 274.562H126.305ZM145.77 289.281C143.918 289.281 142.438 288.723 141.328 287.605C140.227 286.48 139.676 284.992 139.676 283.141C139.676 281.125 140.25 279.551 141.398 278.418C142.555 277.285 144.109 276.719 146.062 276.719C147.938 276.719 149.398 277.27 150.445 278.371C151.492 279.473 152.016 281 152.016 282.953C152.016 284.867 151.449 286.402 150.316 287.559C149.191 288.707 147.676 289.281 145.77 289.281ZM145.898 278.887C144.836 278.887 143.996 279.258 143.379 280C142.762 280.742 142.453 281.766 142.453 283.07C142.453 284.328 142.766 285.32 143.391 286.047C144.016 286.766 144.852 287.125 145.898 287.125C146.969 287.125 147.789 286.77 148.359 286.059C148.938 285.348 149.227 284.336 149.227 283.023C149.227 281.703 148.938 280.684 148.359 279.965C147.789 279.246 146.969 278.887 145.898 278.887ZM164.953 283.738H156.773C156.805 284.848 157.145 285.703 157.793 286.305C158.449 286.906 159.348 287.207 160.488 287.207C161.77 287.207 162.945 286.824 164.016 286.059V288.25C162.922 288.938 161.477 289.281 159.68 289.281C157.914 289.281 156.527 288.738 155.52 287.652C154.52 286.559 154.02 285.023 154.02 283.047C154.02 281.18 154.57 279.66 155.672 278.488C156.781 277.309 158.156 276.719 159.797 276.719C161.438 276.719 162.707 277.246 163.605 278.301C164.504 279.355 164.953 280.82 164.953 282.695V283.738ZM162.328 281.816C162.32 280.84 162.09 280.082 161.637 279.543C161.184 278.996 160.559 278.723 159.762 278.723C158.98 278.723 158.316 279.008 157.77 279.578C157.23 280.148 156.898 280.895 156.773 281.816H162.328Z" fill="#1A55A7"/>
<path d="M65.0742 336V319.195H69.9258C76.1211 319.195 79.2188 321.926 79.2188 327.387C79.2188 329.98 78.3594 332.066 76.6406 333.645C74.9219 335.215 72.6172 336 69.7266 336H65.0742ZM67.8516 321.562V333.645H70.0781C72.0391 333.645 73.5625 333.105 74.6484 332.027C75.7422 330.949 76.2891 329.426 76.2891 327.457C76.2891 323.527 74.2539 321.562 70.1836 321.562H67.8516ZM91.207 336H88.5703V334.125H88.5234C87.6953 335.562 86.4805 336.281 84.8789 336.281C83.6992 336.281 82.7734 335.961 82.1016 335.32C81.4375 334.68 81.1055 333.832 81.1055 332.777C81.1055 330.512 82.4102 329.191 85.0195 328.816L88.582 328.312C88.582 326.602 87.7695 325.746 86.1445 325.746C84.7148 325.746 83.4258 326.238 82.2773 327.223V324.844C83.543 324.094 85.0039 323.719 86.6602 323.719C89.6914 323.719 91.207 325.211 91.207 328.195V336ZM88.582 330.105L86.0625 330.457C85.2812 330.559 84.6914 330.75 84.293 331.031C83.9023 331.305 83.707 331.789 83.707 332.484C83.707 332.992 83.8867 333.41 84.2461 333.738C84.6133 334.059 85.1016 334.219 85.7109 334.219C86.5391 334.219 87.2227 333.93 87.7617 333.352C88.3086 332.766 88.582 332.031 88.582 331.148V330.105ZM104.871 324L100.23 336H97.2891L92.8711 324H95.8242L98.4844 332.391C98.6875 333.008 98.8125 333.547 98.8594 334.008H98.8945C98.9648 333.43 99.0742 332.906 99.2227 332.438L102.012 324H104.871ZM116.695 330.738H108.516C108.547 331.848 108.887 332.703 109.535 333.305C110.191 333.906 111.09 334.207 112.23 334.207C113.512 334.207 114.688 333.824 115.758 333.059V335.25C114.664 335.938 113.219 336.281 111.422 336.281C109.656 336.281 108.27 335.738 107.262 334.652C106.262 333.559 105.762 332.023 105.762 330.047C105.762 328.18 106.312 326.66 107.414 325.488C108.523 324.309 109.898 323.719 111.539 323.719C113.18 323.719 114.449 324.246 115.348 325.301C116.246 326.355 116.695 327.82 116.695 329.695V330.738ZM114.07 328.816C114.062 327.84 113.832 327.082 113.379 326.543C112.926 325.996 112.301 325.723 111.504 325.723C110.723 325.723 110.059 326.008 109.512 326.578C108.973 327.148 108.641 327.895 108.516 328.816H114.07Z" fill="#1A55A7"/>
<rect x="39" y="206" width="204" height="4" fill="#C4C4C4" fill-opacity="0.51"/>
<rect x="38" y="255" width="204" height="4" fill="#C4C4C4" fill-opacity="0.51"/>
<rect x="36" y="299" width="204" height="4" fill="#C4C4C4" fill-opacity="0.51"/>
<path d="M39 346H243V350H39V346Z" fill="#C4C4C4" fill-opacity="0.51"/>
</svg>
