<svg width="300" height="312" viewBox="0 0 300 312" fill="none" xmlns="http://www.w3.org/2000/svg">
<rect width="300" height="312" fill="#E5E5E5"/>
<rect width="300" height="312" fill="white"/>
<rect x="10" y="26" width="283" height="58" rx="8" fill="#E6E6E6"/>
<path d="M48.6113 65V44.7656H51.4277L61.6133 60.3926V44.7656H64.0742V65H61.2715L51.0723 49.373V65H48.6113ZM69.3105 65V44.7656H80.6172V46.9121H72.1816V53.4062H79.25V55.5254H72.1816V62.8535H81.2051V65H69.3105ZM87.1113 65L81.9023 44.7656H84.6641L88.8066 60.748L92.6211 44.7656H95.3828L98.9922 60.5293L103.449 44.7656H105.787L100.113 65H97.2559L93.6875 49.4004L89.9551 65H87.1113ZM135.264 69.0469C132.083 68.0169 129.417 66.791 127.266 65.3691C126.409 65.4603 125.748 65.5059 125.283 65.5059C122.567 65.5059 120.357 64.5215 118.652 62.5527C116.957 60.584 116.109 58.0273 116.109 54.8828C116.109 51.6562 116.966 49.0814 118.68 47.1582C120.402 45.2259 122.699 44.2598 125.57 44.2598C128.451 44.2598 130.747 45.2259 132.461 47.1582C134.174 49.0905 135.031 51.679 135.031 54.9238C135.031 59.5723 133.304 62.7897 129.85 64.5762C132.174 65.597 134.585 66.3262 137.082 66.7637L135.264 69.0469ZM125.57 63.3594C127.585 63.3594 129.157 62.612 130.287 61.1172C131.417 59.6224 131.982 57.5443 131.982 54.8828C131.982 52.2122 131.417 50.1341 130.287 48.6484C129.157 47.1536 127.585 46.4062 125.57 46.4062C123.556 46.4062 121.984 47.1536 120.854 48.6484C119.723 50.1341 119.158 52.2031 119.158 54.8555C119.158 57.526 119.723 59.6133 120.854 61.1172C121.984 62.612 123.556 63.3594 125.57 63.3594ZM138.9 44.7656H141.771V57.5352C141.771 59.5677 142.145 61.0488 142.893 61.9785C143.649 62.8991 144.848 63.3594 146.488 63.3594C148.092 63.3594 149.227 62.9264 149.893 62.0605C150.567 61.1855 150.904 59.709 150.904 57.6309V44.7656H153.42V57.5898C153.42 59.3581 153.247 60.7161 152.9 61.6641C152.554 62.612 151.93 63.446 151.027 64.166C149.897 65.0592 148.343 65.5059 146.365 65.5059C143.804 65.5059 141.917 64.8587 140.705 63.5645C139.502 62.2702 138.9 60.2513 138.9 57.5078V44.7656ZM158.479 65V44.7656H169.785V46.9121H161.35V53.4062H168.418V55.5254H161.35V62.8535H170.373V65H158.479ZM172.41 64.6172V61.7734C174.689 62.8307 176.566 63.3594 178.043 63.3594C179.164 63.3594 180.066 63.0632 180.75 62.4707C181.443 61.8691 181.789 61.0898 181.789 60.1328C181.789 59.3398 181.561 58.6654 181.105 58.1094C180.659 57.5534 179.829 56.9336 178.617 56.25L177.223 55.4434C175.5 54.459 174.283 53.5339 173.572 52.668C172.87 51.793 172.52 50.7812 172.52 49.6328C172.52 48.0651 173.085 46.7799 174.215 45.7773C175.345 44.7656 176.785 44.2598 178.535 44.2598C180.094 44.2598 181.739 44.5195 183.471 45.0391V47.6641C181.338 46.8255 179.747 46.4062 178.699 46.4062C177.706 46.4062 176.885 46.6706 176.238 47.1992C175.591 47.7279 175.268 48.3932 175.268 49.1953C175.268 49.8698 175.505 50.4668 175.979 50.9863C176.452 51.5059 177.318 52.1257 178.576 52.8457L180.025 53.666C181.775 54.6595 182.997 55.5983 183.689 56.4824C184.382 57.3665 184.729 58.4284 184.729 59.668C184.729 61.4271 184.081 62.8398 182.787 63.9062C181.493 64.9727 179.775 65.5059 177.633 65.5059C176.266 65.5059 174.525 65.2096 172.41 64.6172ZM193.561 65V46.9121H186.383V44.7656H203.609V46.9121H196.432V65H193.561ZM206.453 65V44.7656H209.324V65H206.453ZM222.805 65.5059C219.934 65.5059 217.637 64.5443 215.914 62.6211C214.201 60.6888 213.344 58.1094 213.344 54.8828C213.344 51.6562 214.201 49.0814 215.914 47.1582C217.637 45.2259 219.934 44.2598 222.805 44.2598C225.676 44.2598 227.968 45.2259 229.682 47.1582C231.404 49.0814 232.266 51.6562 232.266 54.8828C232.266 58.1094 231.404 60.6888 229.682 62.6211C227.968 64.5443 225.676 65.5059 222.805 65.5059ZM222.805 63.3594C224.819 63.3594 226.391 62.612 227.521 61.1172C228.652 59.6133 229.217 57.526 229.217 54.8555C229.217 52.2031 228.652 50.1341 227.521 48.6484C226.391 47.1536 224.819 46.4062 222.805 46.4062C220.79 46.4062 219.218 47.1536 218.088 48.6484C216.958 50.1341 216.393 52.2031 216.393 54.8555C216.393 57.526 216.958 59.6133 218.088 61.1172C219.218 62.612 220.79 63.3594 222.805 63.3594ZM236.299 65V44.7656H239.115L249.301 60.3926V44.7656H251.762V65H248.959L238.76 49.373V65H236.299Z" fill="white"/>
<rect x="10" y="107" width="160" height="36" rx="8" fill="#E6E6E6"/>
<rect x="10" y="158" width="160" height="36" rx="8" fill="#E6E6E6"/>
<rect x="10" y="209" width="160" height="36" rx="8" fill="#E6E6E6"/>
<rect x="10" y="260" width="160" height="36" rx="8" fill="#E6E6E6"/>
<path d="M80.2324 135L88.2578 114.766H91.1016L99.0039 135H95.9004L93.6992 129.395H85.127L82.8984 135H80.2324ZM85.9609 127.262H92.8652L89.4199 118.539L85.9609 127.262Z" fill="white"/>
<path d="M82.6113 187V166.766H87.8613C89.8848 166.766 91.4342 167.148 92.5098 167.914C93.5944 168.68 94.1367 169.783 94.1367 171.223C94.1367 172.389 93.7767 173.428 93.0566 174.34C92.3366 175.251 91.3112 175.958 89.9805 176.459C93.2891 177.471 94.9434 179.298 94.9434 181.941C94.9434 183.126 94.5788 184.179 93.8496 185.1C93.2936 185.801 92.6237 186.294 91.8398 186.576C91.056 186.859 89.9668 187 88.5723 187H82.6113ZM85.4551 184.854H86.043C88.1484 184.854 89.5111 184.721 90.1309 184.457C91.3158 183.956 91.9082 183.026 91.9082 181.668C91.9082 180.465 91.3704 179.467 90.2949 178.674C89.2194 177.872 87.875 177.471 86.2617 177.471H85.4551V184.854ZM85.4551 175.652H86.3711C87.9115 175.652 89.1009 175.324 89.9395 174.668C90.778 174.012 91.1973 173.077 91.1973 171.865C91.1973 169.896 89.6569 168.912 86.5762 168.912H85.4551V175.652Z" fill="white"/>
<path d="M97.8145 234.961C95.8184 235.991 93.64 236.506 91.2793 236.506C88.1348 236.506 85.7057 235.585 83.9922 233.744C82.2786 231.903 81.4219 229.287 81.4219 225.896C81.4219 222.515 82.2923 219.899 84.0332 218.049C85.7832 216.189 88.2487 215.26 91.4297 215.26C93.2344 215.26 95.3535 215.556 97.7871 216.148V218.842C95.0163 217.885 92.8789 217.406 91.375 217.406C89.1784 217.406 87.4785 218.149 86.2754 219.635C85.0723 221.12 84.4707 223.217 84.4707 225.924C84.4707 228.512 85.1133 230.549 86.3984 232.035C87.6836 233.521 89.4427 234.264 91.6758 234.264C93.5807 234.264 95.627 233.676 97.8145 232.5V234.961Z" fill="white"/>
<path d="M82.6113 288V267.766H89.3379C91.3431 267.766 92.9609 267.989 94.1914 268.436C95.431 268.882 96.502 269.639 97.4043 270.705C98.8353 272.4 99.5508 274.633 99.5508 277.404C99.5508 280.531 98.7122 283.064 97.0352 285.006C96.1237 286.072 95.0664 286.838 93.8633 287.303C92.6693 287.768 91.1745 288 89.3789 288H82.6113ZM85.4824 285.854H89.1602C91.7852 285.854 93.6445 285.147 94.7383 283.734C95.9141 282.23 96.502 280.212 96.502 277.678C96.502 275.299 95.9232 273.43 94.7656 272.072C94.0638 271.243 93.2253 270.678 92.25 270.377C91.2747 270.067 89.8073 269.912 87.8477 269.912H85.4824V285.854Z" fill="white"/>
<path d="M263.164 61.2734C263.008 60.8672 262.883 60.4141 262.789 59.9141C262.711 59.3984 262.672 58.9141 262.672 58.4609C262.672 57.7422 262.742 57.0859 262.883 56.4922C263.023 55.8984 263.234 55.3438 263.516 54.8281C263.797 54.2969 264.148 53.7969 264.57 53.3281C264.992 52.8438 265.484 52.3672 266.047 51.8984C266.641 51.3984 267.156 50.9375 267.594 50.5156C268.047 50.0781 268.43 49.6484 268.742 49.2266C269.055 48.7891 269.289 48.3438 269.445 47.8906C269.602 47.4219 269.68 46.9062 269.68 46.3438C269.68 45.8594 269.594 45.4141 269.422 45.0078C269.25 44.5859 269 44.2266 268.672 43.9297C268.359 43.6328 267.969 43.3984 267.5 43.2266C267.047 43.0547 266.539 42.9688 265.977 42.9688C264.758 42.9688 263.492 43.2266 262.18 43.7422C260.867 44.2422 259.625 45.0078 258.453 46.0391V38.9844C259.656 38.2656 260.969 37.7266 262.391 37.3672C263.812 37.0078 265.281 36.8281 266.797 36.8281C268.25 36.8281 269.602 36.9922 270.852 37.3203C272.102 37.6328 273.188 38.1328 274.109 38.8203C275.047 39.5078 275.773 40.3906 276.289 41.4688C276.82 42.5312 277.086 43.8125 277.086 45.3125C277.086 46.2656 276.977 47.1328 276.758 47.9141C276.539 48.6797 276.219 49.4062 275.797 50.0938C275.375 50.7812 274.852 51.4453 274.227 52.0859C273.602 52.7109 272.883 53.3594 272.07 54.0312C271.523 54.4844 271.039 54.9062 270.617 55.2969C270.211 55.6875 269.867 56.0781 269.586 56.4688C269.32 56.8438 269.117 57.25 268.977 57.6875C268.836 58.1094 268.766 58.5938 268.766 59.1406C268.766 59.5156 268.812 59.8984 268.906 60.2891C269.016 60.6797 269.156 61.0078 269.328 61.2734H263.164ZM266.586 71.5391C265.336 71.5391 264.297 71.1641 263.469 70.4141C262.641 69.6328 262.227 68.7109 262.227 67.6484C262.227 66.5547 262.641 65.6406 263.469 64.9062C264.297 64.1719 265.336 63.8047 266.586 63.8047C267.82 63.8047 268.844 64.1719 269.656 64.9062C270.469 65.625 270.875 66.5391 270.875 67.6484C270.875 68.7734 270.477 69.7031 269.68 70.4375C268.867 71.1719 267.836 71.5391 266.586 71.5391Z" fill="#30AD30"/>
</svg>
